#N canvas 53 83 1091 463 10;
#X declare -lib mrpeach;
#X obj 12 13 import mrpeach;
#X obj 19 197 udpsend;
#X msg 19 101 disconnect;
#X floatatom 577 270 5 -100 100 0 - - -;
#X obj 36 167 packOSC;
#X obj 576 366 pack f f f;
#X floatatom 617 271 5 -100 100 0 - - -;
#X floatatom 660 270 5 -100 100 0 - - -;
#X obj 617 329 t b f;
#X obj 660 328 t b f;
#X msg 19 72 connect localhost 7400;
#X floatatom 576 89 5 -180 180 0 - - -;
#X floatatom 616 88 5 -90 90 0 - - -;
#X obj 616 119 t b f;
#X text 574 67 azim;
#X text 614 67 elev;
#X text 576 248 x;
#X text 616 248 y;
#X text 660 249 z;
#X obj 37 143 r osc;
#X obj 366 241 s osc;
#X floatatom 92 305 5 0 100 0 - - -;
#X obj 92 334 / 100;
#X obj 92 393 s osc;
#X text 195 155 remove sound;
#X obj 179 206 s osc;
#X obj 180 52 bng 15 250 50 0 empty empty empty 17 7 0 10 -262144 -1
-1;
#X text 17 52 #1. make connection;
#X obj 577 425 s osc;
#X obj 576 216 s osc;
#X text 573 49 #4. move it around;
#X text 363 49 #3. add source/start sound;
#X text 394 190 remove source;
#X text 381 98 stop sound;
#X text 389 143 change sound;
#X floatatom 664 87 5 0 100 0 - - -;
#X text 662 65 distance;
#X text 89 285 #5. gain;
#X msg 197 173 send /sound/3;
#X obj 286 339 s osc;
#X msg 285 308 send /listener/hrtf data/aalto.wavh;
#X text 282 287 #6. switch to another HRTF;
#X text 203 51 #2. add three sounds;
#X msg 179 128 /sound/3 data/cowbell.wav;
#X msg 180 104 /sound/2 data/cuckoo.wav;
#X msg 180 80 /sound/1 data/ticktock.wav;
#X msg 366 71 send /source/0/sound 2;
#X msg 383 116 send /source/0/sound 0;
#X msg 390 161 send /source/0/sound 1;
#X msg 396 208 send /source/0/sound -1;
#X msg 576 394 send /source/0/position c \$1 \$2 \$3;
#X msg 92 365 send /source/0/gain \$1;
#X obj 576 156 pack f f f;
#X msg 576 184 send /source/0/position s \$1 \$2 \$3;
#X obj 663 132 t b f;
#X obj 664 110 / 10;
#X obj 577 299 / 10;
#X obj 617 299 / 10;
#X obj 660 299 / 10;
#X floatatom 855 60 5 -100 100 0 - - -;
#X obj 854 156 pack f f f;
#X floatatom 895 61 5 -100 100 0 - - -;
#X floatatom 938 60 5 -100 100 0 - - -;
#X obj 895 119 t b f;
#X obj 938 118 t b f;
#X text 854 38 x;
#X text 894 38 y;
#X text 938 39 z;
#X obj 855 215 s osc;
#X obj 855 89 / 10;
#X obj 895 89 / 10;
#X obj 938 89 / 10;
#X msg 854 184 send /listener/position \$1 \$2 \$3;
#X floatatom 856 263 5 -100 100 0 - - -;
#X obj 855 358 pack f f f;
#X floatatom 896 263 5 -100 100 0 - - -;
#X floatatom 939 262 5 -100 100 0 - - -;
#X obj 896 321 t b f;
#X obj 939 320 t b f;
#X text 855 240 x;
#X text 895 240 y;
#X text 939 241 z;
#X obj 856 417 s osc;
#X obj 856 291 / 100;
#X obj 896 291 / 100;
#X obj 939 291 / 100;
#X msg 855 386 send /listener/front \$1 \$2 \$3;
#X connect 2 0 1 0;
#X connect 3 0 56 0;
#X connect 4 0 1 0;
#X connect 5 0 50 0;
#X connect 6 0 57 0;
#X connect 7 0 58 0;
#X connect 8 0 5 0;
#X connect 8 1 5 1;
#X connect 9 0 5 0;
#X connect 9 1 5 2;
#X connect 10 0 1 0;
#X connect 11 0 52 0;
#X connect 12 0 13 0;
#X connect 13 0 52 0;
#X connect 13 1 52 1;
#X connect 19 0 4 0;
#X connect 21 0 22 0;
#X connect 22 0 51 0;
#X connect 26 0 44 0;
#X connect 26 0 43 0;
#X connect 26 0 45 0;
#X connect 35 0 55 0;
#X connect 38 0 25 0;
#X connect 40 0 39 0;
#X connect 43 0 25 0;
#X connect 44 0 25 0;
#X connect 45 0 25 0;
#X connect 46 0 20 0;
#X connect 47 0 20 0;
#X connect 48 0 20 0;
#X connect 49 0 20 0;
#X connect 50 0 28 0;
#X connect 51 0 23 0;
#X connect 52 0 53 0;
#X connect 53 0 29 0;
#X connect 54 0 52 0;
#X connect 54 1 52 2;
#X connect 55 0 54 0;
#X connect 56 0 5 0;
#X connect 57 0 8 0;
#X connect 58 0 9 0;
#X connect 59 0 69 0;
#X connect 60 0 72 0;
#X connect 61 0 70 0;
#X connect 62 0 71 0;
#X connect 63 0 60 0;
#X connect 63 1 60 1;
#X connect 64 0 60 0;
#X connect 64 1 60 2;
#X connect 69 0 60 0;
#X connect 70 0 63 0;
#X connect 71 0 64 0;
#X connect 72 0 68 0;
#X connect 73 0 83 0;
#X connect 74 0 86 0;
#X connect 75 0 84 0;
#X connect 76 0 85 0;
#X connect 77 0 74 0;
#X connect 77 1 74 1;
#X connect 78 0 74 0;
#X connect 78 1 74 2;
#X connect 83 0 74 0;
#X connect 84 0 77 0;
#X connect 85 0 78 0;
#X connect 86 0 82 0;
